<?xml version="1.0" encoding="UTF-8" standalone="no"?>
<!DOCTYPE svg PUBLIC "-//W3C//DTD SVG 20010904//EN"
              "http://www.w3.org/TR/2001/REC-SVG-20010904/DTD/svg10.dtd">

<svg xmlns="http://www.w3.org/2000/svg"
     width="3.98889in" height="1.91111in"
     viewBox="0 0 359 172">
  <path id="Auswahl"
        fill="none" stroke="black" stroke-width="1"
        d="M 173.00,0.00
           C 173.00,0.00 135.88,52.00 135.88,52.00
             135.88,52.00 97.15,105.00 97.15,105.00
             97.15,105.00 76.00,134.00 76.00,134.00
             76.00,134.00 153.00,134.00 153.00,134.00
             153.00,134.00 153.00,172.00 153.00,172.00
             153.00,172.00 1.00,172.00 1.00,172.00
             1.00,172.00 13.12,154.00 13.12,154.00
             13.12,154.00 32.12,128.00 32.12,128.00
             32.12,128.00 98.00,38.00 98.00,38.00
             98.00,38.00 14.00,38.00 14.00,38.00
             14.00,38.00 14.00,0.00 14.00,0.00
             14.00,0.00 173.00,0.00 173.00,0.00 Z
           M 191.00,7.88
           C 205.16,-0.27 228.69,2.00 245.00,2.00
             245.00,2.00 359.00,2.00 359.00,2.00
             359.00,28.87 343.32,49.96 315.00,50.00
             315.00,50.00 168.00,50.00 168.00,50.00
             171.17,32.38 173.70,17.83 191.00,7.88 Z
           M 181.30,76.09
           C 189.96,66.67 202.57,63.02 215.00,63.00
             215.00,63.00 288.00,63.00 288.00,63.00
             287.92,89.01 271.24,110.68 244.00,111.00
             244.00,111.00 168.00,111.00 168.00,111.00
             170.35,97.91 171.68,86.55 181.30,76.09 Z
           M 173.90,148.00
           C 186.69,120.16 215.48,123.00 241.00,123.00
             240.74,128.57 239.66,134.68 237.97,140.00
             236.56,144.47 234.67,149.07 232.10,153.00
             217.41,175.47 191.24,172.00 168.00,172.00
             169.66,162.77 169.73,157.07 173.90,148.00 Z" />
</svg>
